<!DOCTYPE svg PUBLIC "-//W3C//DTD SVG 20010904//EN" "http://www.w3.org/TR/2001/REC-SVG-20010904/DTD/svg10.dtd">
<svg version="1.0" xmlns="http://www.w3.org/2000/svg" width="1600px" height="233px" viewBox="0 0 16000 2330" preserveAspectRatio="xMidYMid meet">
<g id="layer101" fill="#000000" stroke="none">
 <path d="M0 2002 l0 -329 48 -27 c79 -45 116 -68 144 -87 15 -11 34 -19 43 -19 8 0 15 -4 15 -8 0 -5 24 -21 52 -36 29 -15 76 -40 103 -56 80 -45 146 -79 375 -194 203 -102 246 -122 373 -180 28 -13 77 -36 107 -50 30 -14 59 -26 65 -26 5 0 32 -11 60 -24 95 -46 165 -76 175 -76 5 0 33 -11 62 -24 29 -13 87 -36 128 -51 41 -15 91 -34 110 -42 19 -9 60 -24 90 -33 30 -10 100 -35 155 -55 102 -37 156 -54 235 -76 25 -6 73 -22 108 -35 34 -13 68 -24 75 -24 6 0 48 -11 92 -24 44 -14 121 -36 170 -50 81 -22 130 -35 360 -92 39 -9 90 -21 115 -26 25 -5 97 -20 160 -33 498 -103 989 -162 1487 -178 694 -21 1357 22 1888 125 61 11 135 24 165 28 30 4 90 17 133 29 42 11 87 21 100 21 12 0 58 11 102 25 44 14 89 25 100 25 19 0 84 18 270 76 44 13 84 24 90 24 5 0 39 11 75 24 109 39 163 58 210 72 43 13 145 49 280 101 36 13 83 31 104 39 22 8 59 24 82 35 24 10 48 19 54 19 6 0 31 11 56 25 25 14 51 25 59 25 8 0 41 12 72 26 58 27 73 33 213 94 41 18 100 44 130 57 56 26 100 46 180 81 25 11 80 36 122 56 42 20 80 36 85 36 4 0 30 11 58 24 27 14 84 39 125 56 41 17 91 40 111 51 20 10 44 19 53 19 9 0 27 7 40 15 22 15 65 33 176 74 25 9 67 27 94 39 27 12 53 22 58 22 5 0 34 11 64 25 30 14 61 25 69 25 7 0 40 11 72 24 74 30 146 55 203 72 25 7 72 22 105 33 155 50 353 105 550 151 22 5 81 18 130 30 50 12 115 25 145 29 30 4 105 17 165 29 140 27 435 68 590 82 66 6 185 18 265 26 112 11 418 17 1325 24 1064 9 1459 16 1963 36 l162 7 0 124 0 123 -8000 0 -8000 0 0 -328z"/>
 </g>

</svg>